<svg width="280" height="130" viewBox="0 0 280 130" fill="none" xmlns="http://www.w3.org/2000/svg">
  <path d="M87.1704 46.0588C71.1392 46.0588 60.53 59.1662 51.1702 70.733C43.1734 80.6141 35.6219 89.9445 26.4246 89.9445C16.8647 89.9445 10.9951 80.1191 10.9951 73.0754C10.9951 66.5446 17.4341 57.0539 27.5258 57.0539C37.3181 57.0539 42.4197 64.8913 42.6769 65.293C44.2633 67.8603 47.6318 68.6681 50.2119 67.0945C52.8047 65.5149 53.6262 62.1322 52.0458 59.5393C51.7103 58.9901 43.6458 46.0596 27.5258 46.0596C11.305 46.0596 0 60.299 0 73.0761C0 86.2557 10.8522 100.94 26.4238 100.94C40.8656 100.94 50.4496 89.1006 59.7161 77.6496C68.2883 67.0599 76.3859 57.0547 87.1704 57.0547C93.5868 57.0547 97.803 59.2316 100.057 63.7043C102.009 67.5857 102.008 71.9779 102.006 73.4996C102.006 74.3722 101.545 78.7486 99.4105 82.6894C96.9763 87.1787 93.5206 89.2683 88.5267 89.2683C78.4703 89.2683 73.0371 82.7316 70.9911 80.2696C70.4592 79.6287 70.0764 79.1676 69.5649 78.7298C67.2616 76.7567 63.7893 77.0215 61.8125 79.3278C59.9064 81.5521 60.09 84.8588 62.1721 86.8605C62.2714 86.9733 62.391 87.1215 62.5331 87.2937C65.1998 90.5027 73.3079 100.262 88.5244 100.262C107.018 100.262 112.999 82.2291 112.999 73.4244C113.001 67.8166 111.951 62.8836 109.875 58.7592C106.96 52.9672 100.653 46.0588 87.1704 46.0588Z" fill="#FF616A"/>
  <path d="M145.25 67.866C145.25 61.9607 144.963 58.0047 144.39 55.998C143.817 53.934 142.699 52.902 141.036 52.902C139.373 52.902 137.883 53.9913 136.564 56.17C135.245 58.2913 134.586 61.158 134.586 64.77V80.508C134.586 82.9733 135.073 85.066 136.048 86.786C137.023 88.506 138.456 89.366 140.348 89.366C142.24 89.366 143.53 88.1047 144.218 85.582C144.906 83.0593 145.25 78.6447 145.25 72.338V67.866ZM134.414 50.064V56.858C136.65 51.7553 140.606 49.204 146.282 49.204C151.213 49.204 155.025 50.9813 157.72 54.536C160.472 58.0907 161.848 63.48 161.848 70.704C161.848 77.928 160.357 83.26 157.376 86.7C154.452 90.14 150.037 91.86 144.132 91.86C141.38 91.86 139.316 91.516 137.94 90.828C136.564 90.14 135.446 89.0793 134.586 87.646V109.92H145.68V111.468H113.86V109.92H118.59V51.612H114.032V50.064H134.414ZM164.075 26.5H185.145V89.452H189.961V91H164.419V89.452H169.149V28.048H164.075V26.5ZM212.27 70.79H214.764V64.168C214.764 58.7213 214.448 55.0807 213.818 53.246C213.244 51.354 212.098 50.408 210.378 50.408C209.346 50.408 208.4 50.6947 207.54 51.268C206.737 51.784 206.336 52.5293 206.336 53.504C206.336 54.4213 206.508 55.3673 206.852 56.342H209.002C209.46 57.546 209.69 59.008 209.69 60.728C209.69 62.3907 208.973 63.8527 207.54 65.114C206.106 66.318 204.3 66.92 202.122 66.92C197.191 66.92 194.726 64.5407 194.726 59.782C194.726 52.73 200.717 49.204 212.7 49.204C219.522 49.204 224.224 50.3793 226.804 52.73C229.441 55.0233 230.76 59.266 230.76 65.458V82.916C230.76 85.8973 231.591 87.388 233.254 87.388C235.203 87.388 236.35 84.4353 236.694 78.53L237.984 78.616C237.754 83.6613 236.808 87.13 235.146 89.022C233.483 90.914 230.76 91.86 226.976 91.86C220.096 91.86 216.14 89.7387 215.108 85.496C214.362 87.6747 213.244 89.28 211.754 90.312C210.263 91.344 208.084 91.86 205.218 91.86C196.732 91.86 192.49 88.3913 192.49 81.454C192.49 77.3833 194.095 74.6027 197.306 73.112C200.574 71.564 205.562 70.79 212.27 70.79ZM208.83 81.368C208.83 84.3493 208.973 86.27 209.26 87.13C209.604 87.99 210.206 88.42 211.066 88.42C211.983 88.42 212.814 87.7033 213.56 86.27C214.362 84.7793 214.764 82.744 214.764 80.164V72.166H214.162C210.607 72.166 208.83 74.7747 208.83 79.992V81.368ZM233.276 51.612V50.064H258.216V51.612H253.572L262.946 80.164L272.922 51.612H267.16V50.064H279.286V51.612H274.986L258.904 97.966C257.012 103.355 254.89 107.111 252.54 109.232C250.189 111.411 247.322 112.5 243.94 112.5C240.557 112.5 237.891 111.726 235.942 110.178C233.992 108.63 233.018 106.652 233.018 104.244C233.018 101.836 233.648 100.001 234.91 98.74C236.171 97.4787 237.834 96.848 239.898 96.848C244.656 96.848 247.036 98.826 247.036 102.782C247.036 103.642 246.864 104.674 246.52 105.878H243.51C243.051 107.197 242.994 108.286 243.338 109.146C243.682 110.006 244.456 110.436 245.66 110.436C248.01 110.436 250.103 109.261 251.938 106.91C253.772 104.617 255.521 101.091 257.184 96.332L259.076 91H251.508L236.802 51.612H233.276Z" fill="white"/>
</svg>
